<svg width="80" height="80" viewBox="0 0 80 80" fill="none" xmlns="http://www.w3.org/2000/svg">
<path d="M32.304 9.59988C23.84 7.15188 11.952 1.98388 7.69598 10.5439C3.03998 19.9518 11.28 28.7998 16.656 35.7598C20.352 41.0398 19.04 45.5518 14.144 50.7038C3.19998 62.1758 8.12798 77.5358 24.24 77.7918C31.264 77.7918 37.776 74.4638 43.968 71.1358C55.84 64.7358 63.168 69.4558 70.896 63.9038C76.08 60.2078 72.416 50.7678 70.272 45.0878C68.4432 40.3379 68.3245 35.0998 69.936 30.2718C71.536 24.1598 72.56 14.2719 65.808 11.2159C62.736 10.0639 59.2 11.3919 56 10.3519C52.032 9.02388 50.048 4.33588 46.16 2.78388C38.592 -0.256124 38.4 11.1999 32.304 9.59988Z" stroke="white" stroke-width="0.8" stroke-miterlimit="10"/>
<path d="M46.704 4.62385C50.4 6.06385 52.32 10.4638 56.096 11.7278C59.056 12.7198 62.496 11.4238 65.344 12.6079C71.744 15.2958 71.152 24.9278 69.424 30.6718C68.0382 35.3002 68.1672 40.2501 69.792 44.7998C71.792 50.2398 75.152 59.1998 70.224 62.7518C62.832 68.0958 55.824 63.7918 44.624 69.7598C38.752 72.8638 32.56 76.0158 25.936 75.9038C10.736 75.6798 6.04801 61.1198 16.16 50.3038C20.704 45.4238 22.032 41.0718 18.48 36.1278C13.68 29.3918 5.80801 21.1038 10.24 12.2239C14.24 4.04785 25.44 8.79985 33.456 10.9759C39.216 12.5439 39.488 1.77585 46.704 4.62385Z" stroke="#F0D3EA" stroke-width="0.784" stroke-miterlimit="10"/>
<path d="M47.168 6.39991C50.672 7.75991 52.56 11.8399 56.128 13.0399C58.928 13.9839 62.144 12.7999 64.88 13.9359C71.008 16.5758 70.4 25.5998 68.912 31.0718C67.6723 35.461 67.812 40.125 69.312 44.4318C71.168 49.6478 74.24 58.1118 69.568 61.5358C62.576 66.6558 55.904 62.7838 45.2 68.3038C39.648 71.1998 33.808 74.0958 27.6 73.9518C13.28 73.5998 8.80004 59.9998 18.128 49.7438C22.32 45.1358 23.536 41.0078 20.224 36.3518C15.696 29.9518 8.51204 22.1118 12.704 13.7439C16.544 6.11191 27.104 10.4319 34.624 12.3999C40 13.8399 40.384 3.83991 47.168 6.39991Z" stroke="white" stroke-width="0.752" stroke-miterlimit="10"/>
<path d="M47.632 8.30392C50.96 9.59992 52.8 13.3439 56.16 14.4799C58.8 15.3599 61.84 14.3039 64.416 15.3919C70.176 17.856 69.792 26.304 68.4 31.488C67.2979 35.6394 67.437 40.0227 68.8 44.096C70.544 49.088 73.296 57.072 68.896 60.352C62.304 65.264 55.936 61.792 45.808 66.896C40.56 69.552 35.072 72.208 29.2 72.032C15.84 71.664 11.6 58.912 20.112 49.248C23.952 44.928 25.04 41.04 22 36.64C17.824 30.576 11.2 23.184 15.216 15.3279C18.832 8.17592 28.656 12.1279 35.792 13.8399C40.88 15.1199 41.264 5.90392 47.632 8.30392Z" stroke="#F0D3EA" stroke-width="0.736" stroke-miterlimit="10"/>
<path d="M48.096 10.144C51.296 11.296 53.008 14.784 56.192 15.84C58.688 16.688 61.52 15.76 63.936 16.784C69.36 19.12 69.104 26.992 67.888 31.888C66.9301 35.8154 67.0853 39.9318 68.336 43.776C69.936 48.576 72.4 56.016 68.256 59.168C62.048 63.856 55.984 60.768 46.448 65.568C41.52 68 36.352 70.368 30.864 70.192C18.432 69.68 14.3999 57.84 22.112 48.768C25.6 44.72 26.592 41.072 23.808 36.928C19.952 31.2 14 24.256 17.728 16.928C21.136 10.24 30.272 13.728 36.928 15.328C41.712 16.4 42.16 8 48.096 10.144Z" stroke="white" stroke-width="0.72" stroke-miterlimit="10"/>
<path d="M48.576 11.9839C51.536 13.0399 53.232 16.208 56.224 17.216C58.56 18.016 61.216 17.216 63.472 18.192C68.544 20.4 68.432 27.68 67.376 32.288C66.5483 35.9986 66.7139 39.8618 67.856 43.488C69.312 48.016 71.472 55.008 67.584 58.032C61.792 62.4 56 59.792 47.072 64C42.448 66.208 37.632 68.368 32.528 68.144C21.008 67.616 17.12 56.672 24.112 48.224C27.312 44.448 28.112 41.04 25.6 37.168C22.08 31.76 16.736 25.264 20.24 18.464C23.44 12.2239 31.872 15.2639 38.112 16.64C42.544 17.696 43.056 9.99991 48.576 11.9839Z" stroke="#F0D3EA" stroke-width="0.688" stroke-miterlimit="10"/>
<path d="M49.04 13.824C51.808 14.784 53.472 17.648 56.256 18.624C58.448 19.36 60.912 18.624 63.008 19.616C67.712 21.712 67.808 28.416 66.864 32.72C66.1766 36.2027 66.3525 39.8008 67.376 43.2C68.688 47.488 70.576 54 66.928 56.88C61.536 61.136 56.048 58.88 47.728 62.736C43.424 64.72 38.944 66.608 34.224 66.368C23.632 65.76 19.936 55.728 26.224 47.888C28.992 44.368 29.76 41.216 27.488 37.6C24.288 32.544 19.6 26.48 22.848 20.192C25.84 14.432 33.6 16.992 39.392 18.224C43.376 18.976 43.952 12.064 49.04 13.824Z" stroke="white" stroke-width="0.672" stroke-miterlimit="10"/>
<path d="M49.504 15.6639C52.096 16.5278 53.696 19.0878 56.288 19.9678C58.32 20.6558 60.592 20.0798 62.544 20.9758C66.896 22.9598 67.072 29.0718 66.352 33.0878C65.812 36.3203 65.9979 39.6322 66.896 42.7838C68.064 46.8638 69.632 52.8638 66.272 55.5838C61.28 59.6158 56.096 57.7758 48.304 61.2158C44.304 62.9758 40.176 64.6238 35.84 64.3358C26.24 63.6798 22.672 54.5278 28.096 47.2958C30.528 44.0958 31.168 41.1198 29.168 37.7758C26.336 33.0558 22.224 27.4398 25.248 21.6798C28.032 16.3838 35.088 18.4798 40.448 19.5358C44.208 20.2718 44.8 14.1119 49.504 15.6639Z" stroke="#F0D3EA" stroke-width="0.64" stroke-miterlimit="10"/>
<path d="M49.984 17.5042C52.384 18.2722 53.92 20.5282 56.384 21.3442C58.272 21.9842 60.352 21.5202 62.144 22.3682C66.144 24.2242 66.448 29.7602 65.904 33.5682C65.4968 36.5634 65.6926 39.6098 66.48 42.5282C67.504 46.3682 68.784 51.8882 65.68 54.4962C61.088 58.3202 56.192 56.8802 48.992 59.8882C45.296 61.4882 41.504 62.8322 37.552 62.5122C28.8 61.7922 25.504 53.5362 30.16 46.8962C32.224 43.9362 32.768 41.2482 31.024 38.1762C28.544 33.7762 25.024 28.5762 27.824 23.3762C30.384 18.5762 36.768 20.2882 41.664 21.0722C45.04 21.5522 45.728 16.1602 49.984 17.5042Z" stroke="#F0D3EA" stroke-width="0.624" stroke-miterlimit="10"/>
<path d="M50.448 19.3442C52.672 20.0162 54.144 21.9682 56.352 22.7042C58.08 23.2962 59.968 22.9762 61.6 23.7602C65.248 25.5042 65.696 30.4482 65.328 33.9042C65.0558 36.6592 65.256 39.4405 65.92 42.1282C66.816 45.7442 67.808 50.7842 64.96 53.3282C60.8 56.8642 56.16 55.8402 49.6 58.4162C46.3533 59.9282 42.7954 60.6518 39.216 60.5282C31.376 59.7282 28.288 52.3842 32.144 46.3522C33.0338 45.2342 33.5725 43.8778 33.692 42.4539C33.8117 41.0302 33.5067 39.6029 32.816 38.3522C30.672 34.2882 27.776 29.5842 30.32 24.8482C32.688 20.4962 38.32 21.8082 42.832 22.3842C45.856 22.8482 46.624 18.2082 50.448 19.3442Z" stroke="#F0D3EA" stroke-width="0.608" stroke-miterlimit="10"/>
<path d="M50.912 21.1838C52.96 21.7438 54.384 23.3918 56.384 24.0798C57.984 24.6238 59.584 24.4158 61.184 25.1518C64.48 26.7518 65.056 31.1358 64.864 34.3038C64.7328 36.8219 64.9427 39.3461 65.488 41.8078C66.24 45.1838 66.928 49.7278 64.336 52.0638C60.56 55.4558 56.336 54.8478 50.208 57.0078C47.2546 58.2608 44.0499 58.8086 40.848 58.6078C33.936 57.7438 31.04 51.3118 34.128 45.8078C34.8352 44.759 35.2507 43.541 35.3323 42.2787C35.4139 41.0163 35.1584 39.755 34.592 38.6238C32.784 34.8958 30.496 30.6238 32.816 26.4318C34.976 22.5438 39.968 23.4238 44.016 23.8078C46.688 24.1278 47.52 20.2558 50.912 21.1838Z" stroke="#F0D3EA" stroke-width="0.576" stroke-miterlimit="10"/>
<path d="M51.376 23.024C53.248 23.488 54.576 24.832 56.416 25.456C57.8594 25.7147 59.2818 26.0782 60.672 26.544C63.6 28.048 64.32 31.824 64.304 34.704C64.3059 36.9758 64.5256 39.2422 64.96 41.472C65.568 44.672 65.968 48.688 63.632 50.864C60.256 54.064 56.24 53.856 50.832 55.664C48.1805 56.6671 45.3334 57.0448 42.512 56.768C41.235 56.6659 40.0026 56.2525 38.9224 55.5639C37.8421 54.8752 36.9472 53.9323 36.3157 52.8178C35.6842 51.7032 35.3354 50.4507 35.2998 49.1702C35.2645 47.8896 35.5432 46.6198 36.112 45.472C36.6397 44.4949 36.9357 43.4096 36.9773 42.3C37.0189 41.1904 36.805 40.0859 36.352 39.072C34.896 35.664 33.152 31.856 35.312 28.176C37.248 24.752 41.552 25.2 45.12 25.376C47.52 25.424 48.416 22.288 51.376 23.024Z" stroke="#F0D3EA" stroke-width="0.56" stroke-miterlimit="10"/>
<path d="M51.856 24.864C53.4277 25.4198 54.9616 26.0773 56.448 26.832C57.7309 27.0906 58.989 27.46 60.208 27.936C62.784 29.328 63.632 32.512 63.792 35.104C63.904 37.056 64.176 39.184 64.48 41.152C64.944 44.08 65.04 47.632 62.976 49.68C60 52.656 56.288 52.88 51.392 54.176C49.048 54.9267 46.5627 55.1293 44.128 54.768C43.0291 54.6234 41.9762 54.2355 41.0459 53.6326C40.1158 53.0298 39.3317 52.227 38.7509 51.2829C38.1701 50.3389 37.807 49.2771 37.6882 48.175C37.5693 47.073 37.6978 45.9582 38.064 44.912C38.7602 43.0992 38.7602 41.093 38.064 39.28C36.96 36.208 35.888 32.88 37.744 29.68C39.6 26.48 43.072 26.672 46.208 26.736C48.352 26.768 49.312 24.32 51.856 24.864Z" stroke="#F0D3EA" stroke-width="0.544" stroke-miterlimit="10"/>
<path d="M52.32 26.7038C53.7472 27.0853 55.1389 27.5885 56.48 28.2078C57.5813 28.4741 58.6531 28.8493 59.68 29.3278C60.6915 30.0334 61.5334 30.9549 62.145 32.0259C62.7565 33.0968 63.1224 34.2902 63.216 35.5198C63.456 37.1998 63.728 39.0558 63.936 40.8158C64.24 43.5198 64.048 46.5758 62.336 48.4958C59.728 51.1998 56.32 51.8878 52.016 52.7998C49.9678 53.2898 47.8362 53.317 45.776 52.8798C43.892 52.515 42.2283 51.4211 41.1467 49.8362C40.065 48.2512 39.653 46.3032 40 44.4158C40.3291 42.8259 40.2744 41.1803 39.84 39.6158C39.088 36.8638 38.608 33.9678 40.224 31.3278C41.84 28.6878 44.8 28.4158 47.424 28.1598C49.168 27.9998 50.224 26.3518 52.32 26.7038Z" stroke="#F0D3EA" stroke-width="0.512" stroke-miterlimit="10"/>
<path d="M52.8 28.5442C54.0784 28.7382 55.3298 29.0819 56.528 29.5682C57.4552 29.861 58.3504 30.2469 59.2 30.7202C60.9824 31.9491 62.2342 33.8067 62.704 35.9202C63.0891 37.4149 63.3408 38.941 63.456 40.4802C63.7424 42.9142 63.0712 45.3642 61.584 47.3122C59.2155 49.7704 55.987 51.2155 52.576 51.3442C50.8333 51.5955 49.0565 51.4533 47.376 50.9282C45.8664 50.4624 44.5386 49.5397 43.5757 48.2874C42.6128 47.035 42.0622 45.5147 42 43.9362C41.967 42.5749 41.844 41.2173 41.632 39.8722C41.0859 37.4862 41.4813 34.9818 42.736 32.8802C43.4302 31.971 44.3013 31.2118 45.2966 30.6482C46.292 30.0845 47.3912 29.728 48.528 29.6002C50 29.3122 51.2 28.3842 52.8 28.5442Z" stroke="#F0D3EA" stroke-width="0.496" stroke-miterlimit="10"/>
<path d="M53.264 49.936C58.6632 49.936 63.04 45.5592 63.04 40.16C63.04 34.7608 58.6632 30.384 53.264 30.384C47.8648 30.384 43.488 34.7608 43.488 40.16C43.488 45.5592 47.8648 49.936 53.264 49.936Z" stroke="#F0D3EA" stroke-width="0.464" stroke-miterlimit="10"/>
<path d="M34.401 40.605H31.665L31.161 42H30.297L32.565 35.763H33.51L35.769 42H34.905L34.401 40.605ZM34.167 39.939L33.033 36.771L31.899 39.939H34.167ZM42.6885 36.978C43.0725 36.978 43.4145 37.059 43.7145 37.221C44.0145 37.377 44.2515 37.614 44.4255 37.932C44.5995 38.25 44.6865 38.637 44.6865 39.093V42H43.8765V39.21C43.8765 38.718 43.7535 38.343 43.5075 38.085C43.2675 37.821 42.9405 37.689 42.5265 37.689C42.1005 37.689 41.7615 37.827 41.5095 38.103C41.2575 38.373 41.1315 38.766 41.1315 39.282V42H40.3215V39.21C40.3215 38.718 40.1985 38.343 39.9525 38.085C39.7125 37.821 39.3855 37.689 38.9715 37.689C38.5455 37.689 38.2065 37.827 37.9545 38.103C37.7025 38.373 37.5765 38.766 37.5765 39.282V42H36.7575V37.068H37.5765V37.779C37.7385 37.521 37.9545 37.323 38.2245 37.185C38.5005 37.047 38.8035 36.978 39.1335 36.978C39.5475 36.978 39.9135 37.071 40.2315 37.257C40.5495 37.443 40.7865 37.716 40.9425 38.076C41.0805 37.728 41.3085 37.458 41.6265 37.266C41.9445 37.074 42.2985 36.978 42.6885 36.978ZM48.4329 36.978C49.0329 36.978 49.5189 37.161 49.8909 37.527C50.2629 37.887 50.4489 38.409 50.4489 39.093V42H49.6389V39.21C49.6389 38.718 49.5159 38.343 49.2699 38.085C49.0239 37.821 48.6879 37.689 48.2619 37.689C47.8299 37.689 47.4849 37.824 47.2269 38.094C46.9749 38.364 46.8489 38.757 46.8489 39.273V42H46.0299V37.068H46.8489V37.77C47.0109 37.518 47.2299 37.323 47.5059 37.185C47.7879 37.047 48.0969 36.978 48.4329 36.978ZM51.4808 39.516C51.4808 39.012 51.5828 38.571 51.7868 38.193C51.9908 37.809 52.2698 37.512 52.6238 37.302C52.9838 37.092 53.3828 36.987 53.8208 36.987C54.2528 36.987 54.6278 37.08 54.9458 37.266C55.2638 37.452 55.5008 37.686 55.6568 37.968V37.068H56.4848V42H55.6568V41.082C55.4948 41.37 55.2518 41.61 54.9278 41.802C54.6098 41.988 54.2378 42.081 53.8118 42.081C53.3738 42.081 52.9778 41.973 52.6238 41.757C52.2698 41.541 51.9908 41.238 51.7868 40.848C51.5828 40.458 51.4808 40.014 51.4808 39.516ZM55.6568 39.525C55.6568 39.153 55.5818 38.829 55.4318 38.553C55.2818 38.277 55.0778 38.067 54.8198 37.923C54.5678 37.773 54.2888 37.698 53.9828 37.698C53.6768 37.698 53.3978 37.77 53.1458 37.914C52.8938 38.058 52.6928 38.268 52.5428 38.544C52.3928 38.82 52.3178 39.144 52.3178 39.516C52.3178 39.894 52.3928 40.224 52.5428 40.506C52.6928 40.782 52.8938 40.995 53.1458 41.145C53.3978 41.289 53.6768 41.361 53.9828 41.361C54.2888 41.361 54.5678 41.289 54.8198 41.145C55.0778 40.995 55.2818 40.782 55.4318 40.506C55.5818 40.224 55.6568 39.897 55.6568 39.525ZM60.3168 36.978C60.6888 36.978 61.0248 37.059 61.3248 37.221C61.6248 37.377 61.8588 37.614 62.0268 37.932C62.2008 38.25 62.2878 38.637 62.2878 39.093V42H61.4778V39.21C61.4778 38.718 61.3548 38.343 61.1088 38.085C60.8628 37.821 60.5268 37.689 60.1008 37.689C59.6688 37.689 59.3238 37.824 59.0658 38.094C58.8138 38.364 58.6878 38.757 58.6878 39.273V42H57.8688V35.34H58.6878V37.77C58.8498 37.518 59.0718 37.323 59.3538 37.185C59.6418 37.047 59.9628 36.978 60.3168 36.978Z" fill="white"/>
</svg>
